<?xml version="1.0" standalone="no"?><!DOCTYPE svg PUBLIC "-//W3C//DTD SVG 1.1//EN" "http://www.w3.org/Graphics/SVG/1.1/DTD/svg11.dtd"><svg t="1531900890383" class="icon" style="" viewBox="0 0 1024 1024" version="1.1" xmlns="http://www.w3.org/2000/svg" p-id="2481" xmlns:xlink="http://www.w3.org/1999/xlink" width="32" height="32"><defs><style type="text/css"></style></defs><path d="M172.178286 896.219429c-14.262857-14.262857-11.264-40.448 6.582857-58.294858l659.163428-659.163428c17.846857-17.846857 44.032-20.845714 58.294858-6.582857 14.262857 14.189714 11.264 40.448-6.582858 58.294857L230.4 889.636571c-17.846857 17.846857-44.105143 20.845714-58.294857 6.582858" fill="#ffffff" p-id="2482"></path><path d="M896.219429 896.219429c14.262857-14.262857 11.264-40.448-6.582858-58.294858L230.473143 178.761143c-17.846857-17.846857-44.105143-20.845714-58.294857-6.582857-14.262857 14.189714-11.264 40.448 6.582857 58.294857l659.163428 659.163428c17.846857 17.846857 44.032 20.845714 58.294858 6.582858" fill="#ffffff" p-id="2483"></path></svg>